<?xml version="1.0" encoding="utf-8"?>
<!-- Generator: Adobe Illustrator 18.0.0, SVG Export Plug-In . SVG Version: 6.00 Build 0)  -->
<!DOCTYPE svg PUBLIC "-//W3C//DTD SVG 1.1//EN" "http://www.w3.org/Graphics/SVG/1.1/DTD/svg11.dtd">
<svg version="1.1" id="Layer_1" xmlns="http://www.w3.org/2000/svg" xmlns:xlink="http://www.w3.org/1999/xlink" x="0px" y="0px"
	 viewBox="0 0 454.5 349.4" enable-background="new 0 0 454.5 349.4" xml:space="preserve">
<path fill="#F9F3CB" d="M99.1,292.9l-2.6,2.5c-1.8-1.9-3.7-2.8-5.9-2.8c-1.9,0-3.4,0.6-4.7,1.9c-1.3,1.3-1.9,2.8-1.9,4.7
	c0,1.3,0.3,2.4,0.8,3.4c0.6,1,1.4,1.8,2.4,2.4c1,0.6,2.2,0.9,3.4,0.9c1.1,0,2.1-0.2,2.9-0.6c0.9-0.4,1.9-1.1,2.9-2.2l2.5,2.6
	c-1.4,1.4-2.8,2.4-4.1,2.9c-1.3,0.5-2.7,0.8-4.4,0.8c-3,0-5.5-1-7.4-2.9c-1.9-1.9-2.9-4.4-2.9-7.4c0-1.9,0.4-3.7,1.3-5.2
	c0.9-1.5,2.1-2.7,3.8-3.6c1.6-0.9,3.4-1.4,5.3-1.4c1.6,0,3.1,0.3,4.6,1C96.8,290.7,98.1,291.7,99.1,292.9"/>
<path fill="#F9F3CB" d="M132.6,289c2.7,0,5.1,1,7.1,3c2,2,3,4.4,3,7.3c0,2.8-1,5.2-2.9,7.2c-2,2-4.3,2.9-7.1,2.9c-2.9,0-5.3-1-7.3-3
	c-1.9-2-2.9-4.4-2.9-7.2c0-1.9,0.5-3.6,1.3-5.1c0.9-1.6,2.1-2.8,3.7-3.7C129.1,289.5,130.8,289,132.6,289 M132.6,292.6
	c-1.8,0-3.3,0.6-4.5,1.9c-1.2,1.3-1.8,2.8-1.8,4.8c0,2.1,0.8,3.8,2.3,5.1c1.2,1,2.6,1.5,4.1,1.5c1.8,0,3.2-0.6,4.5-1.9
	c1.2-1.3,1.9-2.8,1.9-4.7c0-1.8-0.6-3.4-1.9-4.7C135.9,293.3,134.3,292.6,132.6,292.6"/>
<polygon fill="#F9F3CB" points="167.2,289.5 170.9,289.5 170.9,305.4 176.3,305.4 176.3,308.9 167.2,308.9 "/>
<path fill="#F9F3CB" d="M209.3,289c2.7,0,5.1,1,7.1,3c2,2,3,4.4,3,7.3c0,2.8-1,5.2-2.9,7.2c-1.9,2-4.3,2.9-7.1,2.9
	c-2.9,0-5.3-1-7.3-3c-1.9-2-2.9-4.4-2.9-7.2c0-1.9,0.4-3.6,1.3-5.1c0.9-1.6,2.1-2.8,3.7-3.7C205.8,289.5,207.5,289,209.3,289
	 M209.3,292.6c-1.8,0-3.3,0.6-4.5,1.9c-1.2,1.3-1.8,2.8-1.8,4.8c0,2.1,0.8,3.8,2.3,5.1c1.2,1,2.6,1.5,4.1,1.5c1.8,0,3.2-0.6,4.5-1.9
	c1.2-1.3,1.9-2.8,1.9-4.7c0-1.8-0.6-3.4-1.9-4.7C212.6,293.3,211.1,292.6,209.3,292.6"/>
<polygon fill="#F9F3CB" points="245.8,289.5 249.4,289.5 253.9,303.1 258.5,289.5 262.1,289.5 265.3,308.9 261.8,308.9 259.7,296.7 
	255.6,308.9 252.3,308.9 248.2,296.7 246.1,308.9 242.5,308.9 "/>
<path fill="#F9F3CB" d="M289.3,308.9v-19.4h3c1.8,0,3.1,0.1,3.9,0.3c1.2,0.3,2.1,0.9,2.8,1.7c0.7,0.8,1,1.8,1,3c0,0.7-0.2,1.4-0.5,2
	c-0.3,0.6-0.8,1.2-1.5,1.7c1.2,0.6,2,1.2,2.6,2.1c0.5,0.8,0.8,1.8,0.8,2.9c0,1.1-0.3,2.1-0.8,3c-0.6,0.9-1.3,1.6-2.2,2
	c-0.9,0.4-2.1,0.7-3.7,0.7L289.3,308.9L289.3,308.9z M293,293v4.1h0.8c0.9,0,1.6-0.2,2-0.6c0.4-0.4,0.7-0.9,0.7-1.5
	c0-0.6-0.2-1.1-0.6-1.4c-0.4-0.4-1-0.5-1.9-0.5L293,293L293,293z M293,300.4v5h0.9c1.5,0,2.6-0.2,3.1-0.6c0.5-0.4,0.8-0.9,0.8-1.7
	c0-0.8-0.3-1.5-0.9-2c-0.6-0.5-1.7-0.7-3.1-0.7H293z"/>
<rect x="325.8" y="289.5" fill="#F9F3CB" width="3.7" height="19.4"/>
<path fill="#F9F3CB" d="M360.7,289.5h3.8l7.5,19.4H368l-1.5-4h-7.9l-1.6,4h-3.8L360.7,289.5z M362.6,294.7l-2.6,6.7h5.2L362.6,294.7
	z"/>
<path fill="#65491D" d="M71.6,52.6c0,0-11.5,0-21.2,0c-9.7,0-11.1,7.5-11.1,11.1c0,3.5-0.5,90.5-0.5,90.5l21.2-0.2V73.1l21.4,81.4
	h22.3l21.4-81.9V154h19.9V52.6h-31.9l-20.9,76.8L71.6,52.6z"/>
<path fill="#65491D" d="M220,123.5V98.2c0-11.3-5-24.4-33.3-24.4c-32.6,0-33.8,21.8-33.8,21.8l20.9,0.4c0,0,0.2-5.3,13.3-5.5
	c13.7-0.2,23.4,11.4-8.4,15.4c-30,3.8-27.6,23.4-27.6,23.4c-0.2,5.3-1.6,28.2,35.1,26.3C223,153.6,220,123.5,220,123.5 M182.4,139.4
	c-12.2,0.4-12.7-9.3-9.3-14.9c3.6-5.9,23.6-5.5,26.7-9.7C199.7,124.6,200.6,138.7,182.4,139.4"/>
<path fill="#65491D" d="M303.7,149.9c0,0-0.2-12.8,0-38.7c0.2-26.7-14.3-36.8-40.8-36.8c0,0-35.2-4.2-35.2,40.4
	c0,30.7,20.8,41.1,34.5,41.1c13.7,0,21.1-11,21.1-11s0.8,23.2-15.8,24c-12.5,0.6-15.6-7.4-15.6-7.4l-22.1,0.2
	c0,0,2.7,26.9,35.8,25.5C309.6,185.2,303.7,149.9,303.7,149.9 M265,138.5c-19.4,0-16.2-26.1-16.2-26.1s-1.5-20.4,16.8-20.6
	c18.3-0.2,17.5,24.2,17.5,24.2S284.3,138.5,265,138.5"/>
<path fill="#65491D" d="M313.2,76v77.9h21.5V86.5c0,0,0-10.4-10.4-10.4C313.8,76.1,313.2,76,313.2,76"/>
<path fill="#65491D" d="M334.7,69.7h-21.5V52.8h11.6c7.4,0,10.1,6.7,10.1,10.3C334.9,66.7,334.7,69.7,334.7,69.7"/>
<path fill="#65491D" d="M415.9,99.8l-21.1,0.2c0,0-4.2-9.1-15.2-8.4c-10.9,0.6-15.2,7.4-15.8,23.4c-0.6,16,7.2,23.6,17.1,23.4
	c8.2-0.2,9.7-2.1,11.2-3.4c1.5-1.3,2.5-4.8,10.1-5.3c7.6-0.4,14.5,0.2,14.5,0.2s-4,25.1-36,25.9c-32,0.8-37.9-28-38.1-41.7
	c-0.2-13.7,5.7-40,36.8-40.4C412.1,73.2,415.9,99.8,415.9,99.8"/>
<path fill="#F9F3CB" d="M154.1,187.2v-18.4H60.6c-15.5,0-15.3,10.3-15.3,10.3v7.8h40.3V270h28.7v-82.8H154.1z"/>
<path fill="#F9F3CB" d="M236.8,228.9c0,0,2.3-39-48.3-39c-52.7,0-48.7,41.5-48.7,41.5s-3.2,40.1,49.5,40.1
	C242,271.5,236.8,228.9,236.8,228.9 M188.5,254.6c-22.1,0-21.5-19.6-21.5-23s-1.5-24,20.7-24c22.1,0,22.1,17.9,22.1,22.1
	C209.8,233.9,209.1,254.6,188.5,254.6"/>
<path fill="#F9F3CB" d="M269.2,191.6h-28v48.3c0,16.2,9.5,23.9,21.1,27.4c15.1,4.5,27,6.1,47.4,1.2c10-2.4,23.6-7.8,23.6-32.4v-44.3
	h-13.7c-7.6,0-13.7,3.7-13.7,11.6v34.8c0,2.9,2,16.9-18.6,16.9c-19.2,0-18.3-11.3-18.3-18.3C269,229.6,269.2,191.6,269.2,191.6"/>
<path fill="#F9F3CB" d="M397,191.6v21.1c0,0-2.3,0.3-12.1,0.3c-13.9,0-19.7,6.3-19.7,21.8v35.4h-27.3v-36.9
	c0-29.8,19.2-35,29.5-38.4C377.6,191.4,397,191.6,397,191.6"/>
</svg>
